<svg viewBox="0 0 279 158" xmlns="http://www.w3.org/2000/svg"><path d="m268.3 15.6-5.4 10.7-.7-1.3c-1.2-2.1-3.8-5.9-5.2-7.6-3.9-4.8-9-8.2-14.3-9.5-2.1-.5-6.3-.5-8.1 0-3.8 1-7.3 3.3-10.7 6.6-4 4-7.2 9.3-9.9 16.3-3 7.6-4.6 15.1-5.1 24.9-.6 10.6.9 20.9 4.3 29.9.8 2.2 2 4.9 2.1 4.8 0 0-.1-.6-.2-1.3-.8-4.2-1.1-12.6-.8-18.6.4-6.3 1.6-12.1 4-19.5 2.4-7.5 5.3-12.4 9.9-17.2 4.7-4.8 8.8-6.9 14.4-7.2 4-.2 6.9.8 11.4 3.7 4.2 2.8 8 7.1 11.1 12.7.5.8.9 1.5 1 1.4.3-.3 10.6-20.3 10.7-20.6s-2.8-18-3-18.6c0-.1-2.5 4.7-5.5 10.5h-.1v-.1zm-267.6-9.4c0 .2 9.8 33.2 21.7 73.4l21.6 73h1.9l13.5-45.4c7.4-24.9 13.6-45.4 13.6-45.4s6.2 20.4 13.6 45.4l13.5 45.4h1.9l18.7-62.9c18.4-62.1 18.7-62.9 19.5-64.4l.9-1.5h30.8l-.6.9c-.3.5-6.1 10.4-12.7 21.9l-12.2 21v8.7h4.8c5.1 0 7.2.1 9.7.7 9.4 1.9 15.6 8.1 17.8 18.2 1.3 5.6 1.4 12.3.4 18.1-1.5 9-6.1 16.8-11.5 19.6-2.2 1.2-3.3 1.4-6.4 1.4-2.4 0-2.9-.1-4.3-.4-3.7-1-6.2-2.4-9-5.4-2.9-2.9-4.9-5.9-6.7-10.1-.5-1.1-.9-1.8-1-1.7-.2.1-12 5-13.9 5.8l-.8.3.7 1.8c4 11.2 11.3 20.1 20.2 24.6 4.2 2.1 8.1 3.2 13 3.5 8.6.5 16.4-1.7 22.7-6.6 1.8-1.3 5-4.4 6.5-6.3 5.9-7.2 9.3-15.5 10.7-25.8.5-3.5.6-10.9.2-14.6-1.5-15.2-7.9-27.1-18.5-33.9-2.1-1.3-5.3-3-7.7-3.9-1-.4-2-.8-2-.8-.1-.1 5.9-10.5 13.3-23.1l13.4-23v-8.8h-71.4l-13.1 44.6c-7.2 24.5-13.1 44.6-13.2 44.6s-5.7-18.9-12.4-41.9c-6.7-23.1-12.6-43.2-13-44.7l-.8-2.7h-9.5c-9 0-9.5 0-9.4.3.1.2 2 6.8 4.4 14.6l4.2 14.3-8.8 30.1c-4.9 16.5-8.8 30-8.9 30s-6-20-13.2-44.6l-13.4-44.7h-18.9zm201.5 102.7c0 .3 2.7 8 3.4 9.8.9 2.5 3.4 7.5 5 10.1 2.7 4.7 6.2 9.2 9.6 12.7 5.8 5.8 11.4 8.9 18.5 10.1 1.6.3 7.5.3 9.1 0 4.9-.9 9.1-2.7 12.9-5.4 6.5-4.8 12.1-11.2 16.3-18.9l1-1.8-1.4-7c-.8-4-1.4-7.1-1.5-7.2 0 0-.7 1.1-1.6 2.5-2 3.4-4.3 6.7-5.7 8.5-.6.8-2.3 2.6-3.8 4.1-4.2 4.2-7.4 6.6-11.3 8.4-5.8 2.8-10 3.7-15.4 3.3-3.8-.3-6-.7-9.2-2.1-4.8-1.9-8.3-4.4-13.1-9-4.3-4.2-6.1-6.6-10.9-15.1-1.9-3.2-2-3.4-2-3.2z" fill="#F14D29"/></svg>